<svg id="svg" version="1.1" xmlns="http://www.w3.org/2000/svg" xmlns:xlink="http://www.w3.org/1999/xlink" width="400" height="400" viewBox="0, 0, 400,400"><g id="svgg"><path id="path0" d="M247.963 64.201 C 226.482 65.813,206.822 76.192,193.478 92.963 C 192.465 94.236,191.405 95.528,191.122 95.833 C 190.376 96.641,188.388 99.590,186.971 101.993 C 172.815 125.995,172.569 155.437,186.323 179.754 C 187.717 182.219,190.342 186.198,191.249 187.222 C 191.565 187.579,192.655 188.916,193.671 190.195 C 194.688 191.473,196.538 193.579,197.784 194.876 L 200.048 197.233 200.562 196.811 C 200.844 196.579,201.854 195.696,202.806 194.849 C 204.636 193.221,208.012 190.593,209.964 189.277 C 211.348 188.345,211.378 188.520,209.561 186.942 C 206.924 184.652,201.567 178.158,200.474 175.926 C 200.250 175.468,199.704 174.509,199.263 173.796 C 187.520 154.852,187.520 129.014,199.263 109.238 C 199.872 108.212,200.370 107.294,200.370 107.197 C 200.370 106.620,204.426 101.292,206.874 98.653 C 210.348 94.907,216.540 89.968,221.341 87.113 C 242.095 74.773,268.169 75.327,288.233 88.534 C 321.762 110.604,326.627 157.378,298.382 186.103 C 297.135 187.372,296.176 188.463,296.251 188.527 C 296.327 188.591,297.306 189.296,298.426 190.093 C 300.846 191.815,303.396 193.863,305.543 195.808 C 307.501 197.582,307.156 197.671,309.922 194.676 C 328.326 174.748,335.177 148.432,328.690 122.583 C 319.561 86.205,285.266 61.402,247.963 64.201 M221.097 198.590 C 217.671 200.626,211.111 205.548,211.111 206.083 C 211.111 206.166,212.257 206.924,213.657 207.766 C 238.223 222.545,269.080 222.554,293.611 207.790 C 294.833 207.054,295.917 206.369,296.019 206.267 C 296.512 205.772,289.790 200.626,285.410 198.146 L 283.689 197.172 280.965 198.471 C 263.482 206.802,243.724 206.754,225.995 198.337 C 223.168 196.995,223.840 196.960,221.097 198.590 " stroke="none" fill="#34accb" fill-rule="evenodd"></path><path id="path1" d="M141.667 175.746 C 128.173 176.789,113.529 181.774,104.352 188.448 C 100.092 191.546,98.557 192.726,96.781 194.268 C 95.672 195.231,94.214 196.483,93.540 197.050 C 88.057 201.663,80.836 211.618,76.907 219.979 C 58.237 259.712,76.261 306.976,116.674 324.262 C 144.287 336.074,176.558 330.679,198.923 310.512 L 200.345 309.229 202.349 311.020 C 226.301 332.439,262.120 336.558,290.463 321.155 C 340.892 293.749,345.170 223.345,298.426 190.095 C 297.306 189.298,296.293 188.530,296.176 188.387 C 295.353 187.385,286.425 182.697,282.130 181.012 C 261.682 172.988,239.338 173.882,219.537 183.517 C 216.464 185.012,211.677 187.799,210.891 188.551 C 210.643 188.788,209.695 189.498,208.785 190.129 C 206.743 191.544,203.748 193.945,201.687 195.819 L 200.132 197.231 197.983 195.136 C 196.801 193.983,194.833 192.301,193.611 191.398 C 192.389 190.494,190.806 189.317,190.093 188.782 C 178.326 179.951,158.009 174.482,141.667 175.746 M155.000 190.267 C 168.052 192.061,181.097 198.010,189.269 205.893 L 190.935 207.500 189.717 209.259 C 171.711 235.263,171.722 270.817,189.742 296.787 L 190.918 298.481 189.613 299.712 C 165.469 322.489,126.202 321.579,102.312 297.688 C 73.271 268.648,79.235 219.951,114.444 198.629 C 115.718 197.858,116.865 197.226,116.994 197.225 C 117.124 197.223,117.957 196.857,118.846 196.411 C 129.568 191.035,143.439 188.677,155.000 190.267 M261.667 190.268 C 283.018 193.217,300.384 205.473,309.941 224.337 C 326.491 257.008,312.040 296.842,278.428 311.198 C 255.820 320.855,229.056 316.334,211.065 299.818 C 209.546 298.424,209.489 298.908,211.529 295.829 C 228.725 269.861,228.715 236.255,211.503 210.278 C 210.626 208.954,209.885 207.784,209.856 207.678 C 209.591 206.716,218.718 199.619,222.685 197.702 C 233.040 192.697,239.024 190.928,248.981 189.928 C 250.758 189.749,259.636 189.987,261.667 190.268 M201.257 220.602 C 213.197 240.624,213.080 266.878,200.966 285.931 L 200.259 287.043 199.348 285.512 C 187.493 265.588,187.432 240.716,199.190 220.880 C 200.465 218.728,200.164 218.769,201.257 220.602 " stroke="none" fill="#838383" fill-rule="evenodd"></path><path id="path2" d="M140.370 64.278 C 104.617 67.396,75.639 94.640,70.368 130.093 C 66.833 153.870,74.525 177.822,91.288 195.235 L 93.258 197.281 95.058 195.646 C 97.287 193.622,99.611 191.759,102.319 189.828 L 104.395 188.347 102.058 185.979 C 72.992 156.530,79.491 107.672,115.255 86.761 C 138.984 72.887,170.122 76.316,189.862 94.977 C 190.449 95.531,190.956 95.951,190.989 95.909 C 191.022 95.867,191.582 95.125,192.235 94.259 C 193.922 92.019,195.638 90.049,198.093 87.535 L 200.228 85.347 199.790 84.870 C 198.283 83.230,193.280 79.273,189.689 76.882 C 175.388 67.360,157.489 62.786,140.370 64.278 M207.911 97.767 C 205.229 100.585,200.370 106.809,200.370 107.427 C 200.370 107.514,200.661 108.040,201.016 108.595 C 213.069 127.436,213.160 153.885,201.241 173.869 L 200.314 175.422 200.648 176.042 C 201.545 177.707,205.432 182.579,208.126 185.413 C 209.811 187.186,209.550 187.233,211.144 184.861 C 228.843 158.522,228.811 124.209,211.065 98.009 C 209.520 95.730,209.827 95.753,207.911 97.767 M190.145 187.687 L 189.456 188.328 190.608 189.103 C 191.241 189.529,192.634 190.542,193.704 191.353 C 194.773 192.165,195.515 192.671,195.353 192.479 C 194.049 190.938,192.201 188.643,191.680 187.917 C 190.930 186.873,191.008 186.884,190.145 187.687 M115.185 198.279 C 112.586 199.801,109.820 201.715,107.315 203.726 C 103.981 206.402,104.027 205.966,106.898 207.695 C 127.942 220.370,153.485 222.378,176.296 213.152 C 180.602 211.411,189.352 206.720,189.352 206.153 C 189.352 205.548,182.655 200.555,178.984 198.424 L 176.909 197.219 174.242 198.500 C 156.741 206.908,135.807 206.670,118.322 197.864 C 117.620 197.511,117.023 197.228,116.995 197.236 C 116.967 197.243,116.153 197.712,115.185 198.279 " stroke="none" fill="#040404" fill-rule="evenodd"></path><path id="path3" d="M198.330 87.361 L 196.574 89.167 198.380 87.411 C 200.057 85.780,200.269 85.556,200.135 85.556 C 200.108 85.556,199.295 86.368,198.330 87.361 M195.451 90.417 L 194.907 91.019 195.509 90.475 C 196.070 89.968,196.196 89.815,196.053 89.815 C 196.021 89.815,195.750 90.086,195.451 90.417 M207.037 98.426 C 206.587 98.884,206.261 99.259,206.312 99.259 C 206.363 99.259,206.772 98.884,207.222 98.426 C 207.672 97.968,207.998 97.593,207.947 97.593 C 207.897 97.593,207.487 97.968,207.037 98.426 M206.667 184.125 C 206.667 184.153,207.312 184.799,208.102 185.560 L 209.537 186.944 208.153 185.509 C 206.867 184.176,206.667 183.990,206.667 184.125 " stroke="none" fill="#1a6e94" fill-rule="evenodd"></path><path id="path4" d="M208.602 96.898 L 207.870 97.685 208.657 96.953 C 209.389 96.272,209.530 96.111,209.389 96.111 C 209.359 96.111,209.005 96.465,208.602 96.898 M194.800 192.281 C 194.920 192.402,195.088 192.500,195.174 192.500 C 195.259 192.500,195.515 192.708,195.742 192.963 C 196.095 193.358,196.089 193.333,195.705 192.794 C 195.458 192.446,195.103 192.139,194.918 192.112 C 194.659 192.074,194.632 192.113,194.800 192.281 M94.805 195.880 L 94.167 196.574 94.861 195.936 C 95.507 195.342,95.641 195.185,95.499 195.185 C 95.468 195.185,95.156 195.498,94.805 195.880 " stroke="none" fill="#083450" fill-rule="evenodd"></path></g></svg>